<mxfile host="app.diagrams.net" modified="2024-01-01T06:49:02.277Z" agent="Mozilla/5.0 (X11; Linux x86_64; rv:103.0) Gecko/20100101 Firefox/103.0" version="22.1.16" etag="62RutxyLK3kVvuPtWetp" type="github">
  <diagram name="第 1 页" id="_RD7szwmmZ3ob8jIAxiM">
    <mxGraphModel>
      <root>
        <mxCell id="0" />
        <mxCell id="1" parent="0" />
      </root>
    </mxGraphModel>
  </diagram>
</mxfile>
